<svg width="65" height="40" viewBox="0 0 65 40" fill="none" xmlns="http://www.w3.org/2000/svg">
<g clip-path="url(#clip0_1106_22)">
<path d="M23.016 39.2C23.333 39.2 23.59 39.107 23.786 38.92C23.982 38.733 24.08 38.463 24.08 38.108V36.288C24.08 35.84 24.113 35.448 24.178 35.112C24.243 34.776 24.323 34.449 24.416 34.132L29.506 16.01L34.328 34.58C34.44 34.964 34.521 35.262 34.571 35.475L34.594 35.574C34.641 35.789 34.664 36.027 34.664 36.288V38.108C34.664 38.463 34.762 38.733 34.958 38.92C35.154 39.107 35.411 39.2 35.728 39.2H46.424C46.723 39.2 46.974 39.107 47.18 38.92C47.385 38.733 47.488 38.463 47.488 38.108V36.288C47.488 35.915 47.511 35.583 47.558 35.294C47.605 35.004 47.693 34.617 47.824 34.132L54.04 7.224C54.339 5.974 54.805 4.97 55.44 4.214C56.075 3.458 56.803 2.903 57.624 2.548L58.296 2.24C58.632 2.072 58.87 1.909 59.01 1.75C59.15 1.591 59.22 1.381 59.22 1.12C59.22 0.784 59.103 0.513 58.87 0.308C58.637 0.103 58.287 0 57.82 0H48.916C48.449 0 48.099 0.103 47.866 0.308C47.633 0.513 47.516 0.784 47.516 1.12C47.516 1.381 47.576 1.591 47.698 1.75C47.819 1.909 48.011 2.053 48.272 2.184L48.888 2.408C50.008 2.818 50.759 3.407 51.142 4.172C51.525 4.937 51.595 5.833 51.352 6.86L45.817 30.346L39.34 4.536C39.207 3.956 39.17 3.518 39.23 3.226L39.256 3.122C39.349 2.832 39.573 2.632 39.928 2.52L41.16 2.184C41.459 2.072 41.678 1.927 41.818 1.75C41.9587 1.5706 42.033 1.34796 42.028 1.12C42.028 0.765 41.916 0.49 41.692 0.294C41.468 0.098 41.122 0 40.656 0H24.78C24.332 0 23.991 0.098 23.758 0.294C23.525 0.49 23.408 0.765 23.408 1.12C23.408 1.344 23.468 1.535 23.59 1.694C23.711 1.853 23.912 1.988 24.192 2.1L25.368 2.52C25.629 2.613 25.83 2.763 25.97 2.968C26.11 3.173 26.264 3.575 26.432 4.172L28.183 10.914L22.63 30.389L16.128 4.48C15.981 3.99 15.934 3.582 15.988 3.257L16.016 3.122C16.109 2.777 16.343 2.548 16.716 2.436L18.172 2.1C18.676 1.932 18.928 1.596 18.928 1.092C18.928 0.756 18.816 0.49 18.592 0.294C18.368 0.098 18.022 0 17.556 0H1.344C0.896 0 0.56 0.098 0.336 0.294C0.112 0.49 0 0.756 0 1.092C0 1.316 0.056 1.526 0.168 1.722C0.28 1.918 0.458 2.072 0.7 2.184L1.932 2.576C2.287 2.706 2.557 2.884 2.744 3.108C2.931 3.332 3.089 3.687 3.22 4.172L11.06 34.58C11.172 35.01 11.251 35.331 11.298 35.546C11.345 35.761 11.368 36.008 11.368 36.288V38.108C11.368 38.463 11.471 38.733 11.676 38.92C11.881 39.107 12.143 39.2 12.46 39.2H23.016V39.2ZM57.82 39.9C59.015 39.9 60.083 39.61 61.026 39.032C61.9625 38.4598 62.7344 37.6541 63.266 36.694C63.816 35.714 64.092 34.654 64.092 33.516C64.092 32.359 63.817 31.304 63.266 30.352C62.7271 29.412 61.9558 28.6263 61.026 28.07C60.083 27.5 59.015 27.216 57.82 27.216C56.663 27.216 55.613 27.501 54.67 28.07C53.7402 28.6263 52.9689 29.412 52.43 30.352C51.88 31.304 51.604 32.359 51.604 33.516C51.604 34.655 51.879 35.714 52.43 36.694C52.98 37.674 53.727 38.454 54.67 39.032C55.613 39.611 56.663 39.9 57.82 39.9V39.9Z" fill="#0B0C12"/>
</g>
<defs>
<clipPath id="clip0_1106_22">
<rect width="65" height="40" fill="white"/>
</clipPath>
</defs>
</svg>
